<svg xmlns="http://www.w3.org/2000/svg" xmlns:xlink="http://www.w3.org/1999/xlink" version="1.1" x="0px" y="0px" viewBox="0 0 91 113.75" enable-background="new 0 0 91 91" xml:space="preserve"><g><path d="M80.988,56.487c-0.11,0.842-1.542,15.304-1.785,17.765c-0.208,0.782-0.567,2.788,0.619,4.42   c0.589,0.809,1.75,1.771,3.951,1.771c0.152,0,0.313-0.004,0.354-0.01l1.196-0.004c2.417,0.13,3.675-0.876,4.325-1.719   c1.333-1.725,1.042-3.982,0.86-4.853l-1.086-58.231c-0.018-0.89-0.583-1.674-1.42-1.971c-1.071-0.38-2.11-0.573-3.085-0.573   c-6.761,0-8.566,8.555-8.566,13.61v7.685c0,0.821,0.118,8.113,4.177,11.532c1.781,1.499,1.067,6.388,0.639,9.307   C81.104,55.666,81.04,56.092,80.988,56.487z M86.245,74.158c0.004,0.167,0.027,0.335,0.069,0.497   c0.114,0.44,0.112,1.26-0.036,1.439c0,0.002-0.126,0.081-0.518,0.081l-0.313-0.008l-1.675,0.01c-0.266,0-0.422-0.033-0.479-0.033   c-0.007,0-0.013,0.002-0.019,0.004c-0.045-0.177-0.016-0.58,0.06-0.835c0.048-0.146,0.079-0.295,0.095-0.449   c0.675-6.828,1.709-17.209,1.788-17.819c0.05-0.376,0.108-0.781,0.172-1.211c0.158-1.079,0.338-2.306,0.445-3.581L86.245,74.158z    M80.619,34.377v-7.685c0-0.092,0.186-9.342,4.299-9.342c0.087,0,0.178,0.003,0.27,0.011l0.56,30.08   c-0.307-1.874-1.028-3.583-2.471-4.797C81.113,40.823,80.625,36.057,80.619,34.377z"/><path d="M2.626,73.886c-0.083,0.623-0.309,3.186,1.304,4.976c0.667,0.739,1.868,1.584,3.772,1.584c0.131,0,0.266-0.002,0.404-0.012   l1.196-0.004c2.284,0.135,3.579-0.807,4.247-1.62c1.453-1.77,1.088-4.229,0.923-5.011c-0.309-4.098-1.685-22.389-1.798-23.253   c-0.391-2.95-1.119-8.444,0.778-10.907c2.71-3.522,3.263-9.796,3.317-10.5c0.005-0.054,0.006-0.11,0.006-0.164V15.667   c0-1.177-0.955-2.133-2.133-2.133c-1.178,0-2.133,0.956-2.133,2.133v13.224c-0.136,1.627-0.815,6.035-2.441,8.146   c-0.697,0.908-1.186,1.953-1.517,3.07c-0.33-1.117-0.818-2.164-1.516-3.07c-1.618-2.101-2.301-6.516-2.439-8.147V15.667   c0-1.177-0.956-2.133-2.134-2.133c-1.177,0-2.133,0.956-2.133,2.133v13.309c0,0.054,0.002,0.11,0.007,0.164   c0.054,0.704,0.605,6.978,3.316,10.5c1.896,2.463,1.168,7.957,0.776,10.909C4.318,51.416,2.921,69.966,2.626,73.886z M6.854,74.463   c0.011-0.062,0.018-0.124,0.023-0.186c0.562-7.479,1.378-18.239,1.676-21.916c0.301,3.692,1.116,14.44,1.676,21.916   c0.01,0.116,0.033,0.249,0.06,0.363c0.136,0.563,0.096,1.302-0.031,1.454c-0.039,0.027-0.25,0.099-0.83,0.073L7.982,76.17   c-0.44,0.025-0.762-0.036-0.879-0.164C6.852,75.732,6.79,74.91,6.854,74.463z"/><path d="M6.42,15.667v14.028c0,1.178,0.956,2.133,2.133,2.133c1.178,0,2.134-0.955,2.134-2.133V15.667   c0-1.177-0.956-2.133-2.134-2.133C7.376,13.534,6.42,14.489,6.42,15.667z"/><path d="M15.718,48.333c0,16.715,13.599,30.313,30.313,30.313c16.714,0,30.313-13.598,30.313-30.313   c0-16.713-13.599-30.311-30.313-30.311C29.317,18.022,15.718,31.62,15.718,48.333z M72.234,48.333   c0,14.45-11.755,26.205-26.203,26.205c-14.45,0-26.205-11.755-26.205-26.205c0-14.448,11.754-26.203,26.205-26.203   C60.479,22.13,72.234,33.885,72.234,48.333z"/><path d="M45.502,36.813c-2.279-2.425-5.662-3.604-9.028-2.994c-3.031,0.553-5.513,2.286-7.181,5.014   c-2.362,3.878-2.546,7.638-0.542,11.174c1.014,1.793,2.326,3.535,4.01,5.323c3.03,3.222,6.613,6.276,11.27,9.607   c0.562,0.403,1.109,0.488,1.472,0.488c0.808,0,1.338-0.396,1.544-0.552c4.148-2.957,7.552-5.811,10.407-8.724   c1.64-1.669,3.501-3.728,4.885-6.324c0.617-1.164,1.321-2.736,1.279-4.591c-0.091-3.8-1.602-6.938-4.49-9.327   c-1.749-1.443-3.987-2.238-6.307-2.238c-2.676,0-5.269,1.067-7.114,2.929C45.637,36.669,45.569,36.741,45.502,36.813z    M47.417,41.53c0.394-0.8,0.813-1.415,1.323-1.929c1.95-1.965,5.541-2.162,7.667-0.402c1.92,1.585,2.882,3.594,2.944,6.136   c0.015,0.682-0.219,1.427-0.781,2.487c-1.127,2.116-2.738,3.888-4.164,5.34c-2.482,2.531-5.31,4.938-8.91,7.569   c-3.935-2.883-7.014-5.547-9.627-8.327c-1.448-1.535-2.56-3.008-3.404-4.499c-1.234-2.178-1.087-4.292,0.472-6.851   c1.042-1.707,2.449-2.701,4.3-3.039c0.348-0.062,0.7-0.095,1.043-0.095c2.143,0,4.044,1.192,5.072,3.161l0.268,0.511   c0.379,0.707,1.148,1.139,1.918,1.127C46.338,42.711,47.063,42.249,47.417,41.53z"/></g><text x="0" y="106" fill="#000000" font-size="5px" font-weight="bold" font-family="'Helvetica Neue', Helvetica, Arial-Unicode, Arial, Sans-serif">Created by BomSymbols</text><text x="0" y="111" fill="#000000" font-size="5px" font-weight="bold" font-family="'Helvetica Neue', Helvetica, Arial-Unicode, Arial, Sans-serif">from the Noun Project</text></svg>